<?xml version="1.0" encoding="UTF-8"?>
<!-- Generator: Adobe Illustrator 27.5.0, SVG Export Plug-In . SVG Version: 6.00 Build 0)  -->
<svg xmlns="http://www.w3.org/2000/svg" xmlns:xlink="http://www.w3.org/1999/xlink" version="1.1" id="Layer_1" x="0px" y="0px" viewBox="0 0 1654.6 1593.1" style="enable-background:new 0 0 1654.6 1593.1;" xml:space="preserve">
<style type="text/css">
	.st0{fill:#FFFFFF;}
</style>
<g>
	<path class="st0" d="M9.6,17.2C174.4,11.7,339.2,5.4,504,0c144.5,197.8,289,395.5,433.5,593.2c184.4-196.4,368.7-392.8,553.3-589   c52.2,0.2,104.5-0.1,156.7,0.2c-214.6,226.4-429.4,452.8-643.8,679.4c209.2,286.5,418.6,572.9,627.8,859.3   c7.9,10.1,14.5,21.2,23.2,30.5v0.9c-39.7,2.3-79.4,3.1-119.1,4.9c-114.6,4.3-229.2,8.6-343.8,13   c-154.7-205.8-309.1-411.8-463.8-617.7C536.1,1176.6,344.7,1379,153,1581c-4.2,4.2-7.7,9.4-13.2,12.1H0c0.4-0.9,1.2-2.6,1.6-3.5   c219.9-234.5,440.3-468.6,660.2-703.1C444.4,596.7,226.8,307.1,9.6,17.2z M219.1,111.5c340.6,458.7,681,917.5,1021.7,1376.1   c76.2-1.1,152.5-2.5,228.7-3.4C1138,1034.1,806.6,584,475,134.1c-2.4-2.8-4-6.6-7.2-8.7C384.9,120.8,302,116.2,219.1,111.5z"></path>
</g>
</svg>
